<svg viewBox="0 0 52 52" xmlns="http://www.w3.org/2000/svg">
  <g fill="none" fill-rule="evenodd">
    <path fill="#FFED00" d="M0 52h52V0H0z"/>
    <path fill="#1D1D1D" d="M1 51h50V1H1v50zm-1 1V0h52v52H0zm39.37-29.56l-2.26-2.27.03-4.66L35 17.35v6.04l-2.66 2.88L47.7 41.66 41.37 48 26 32.61 10.63 48 4.3 41.66l15.36-15.39L17 23.4v-6.04l-2.14-1.84.04 4.66-2.27 2.27-7.57-7.58L3 17.01s-.34-5.83 3.89-9.79C8.7 5.56 10.38 5 11.84 5c2.9 0 4.86 2.22 4.86 2.22l7.38 7.24-1.77 1.77 3.69 3.7 3.7-3.7-1.78-1.77 7.38-7.24S37.26 5 40.16 5c1.46 0 3.15.56 4.94 2.22 4.23 3.96 3.9 9.79 3.9 9.79l-2.06-2.15-7.57 7.58z"/>
  </g>
</svg>